<svg xmlns="http://www.w3.org/2000/svg" width="77.618" height="12" viewBox="0 0 77.618 12">
    <defs>
        <style>
            .cls-1,.cls-4,.cls-7{fill:#676767}.cls-2{clip-path:url(#clip-path)}.cls-3{fill:rgba(103,103,103,.4)}.cls-5,.cls-6,.cls-7{stroke:none}.cls-6{fill:rgba(224,0,12,.01)}
        </style>
        <clipPath id="clip-path">
            <path id="Path_392" d="M6.686-115.05L2.787-113l.745-4.342-3.155-3.074 4.359-.633L6.686-125l1.95 3.95 4.359.633-3.155 3.075.745 4.342z" class="cls-1" data-name="Path 392" transform="translate(-.377 125)"/>
        </clipPath>
    </defs>
    <g id="Group_552" data-name="Group 552" transform="translate(44.494 124)">
        <g id="Group_262" class="cls-2" data-name="Group 262" transform="translate(-44.494 -124)">
            <path id="Path_391" d="M-4.623-130H8.956v12.961H-4.623z" class="cls-1" data-name="Path 391" transform="translate(4.142 129.519)"/>
        </g>
        <g id="Group_551" class="cls-2" data-name="Group 551" transform="translate(-28.494 -124)">
            <path id="Path_994" d="M-4.623-130H8.956v12.961H-4.623z" class="cls-1" data-name="Path 994" transform="translate(4.142 129.519)"/>
        </g>
        <g id="Group_262-2" class="cls-2" data-name="Group 262" transform="translate(-12.494 -124)">
            <path id="Path_391-2" d="M-4.623-130H8.956v12.961H-4.623z" class="cls-1" data-name="Path 391" transform="translate(4.142 129.519)"/>
        </g>
        <g id="Group_551-2" class="cls-2" data-name="Group 551" transform="translate(4.506 -124)">
            <path id="Path_994-2" d="M-4.623-130H8.956v12.961H-4.623z" class="cls-1" data-name="Path 994" transform="translate(4.142 129.519)"/>
        </g>
        <g id="Group_554" data-name="Group 554" transform="translate(20.506 -124)">
            <g id="Path_1000" class="cls-3" data-name="Path 1000">
                <path d="M6.686-115.05L2.787-113l.745-4.342-3.155-3.074 4.359-.633L6.686-125l1.95 3.95 4.359.633-3.155 3.075.745 4.342z" class="cls-5" transform="translate(-.377 125)"/>
                <path d="M9.257-114.828l-.402-2.345-.09-.518.377-.367 1.704-1.66-2.354-.342-.52-.076-.233-.471-1.053-2.133-1.053 2.133-.233.471-.52.076-2.354.342 1.703 1.66.377.367-.089.518-.402 2.345 2.106-1.107.465-.245.465.245 2.106 1.107M10.585-113l-3.9-2.05L2.788-113l.744-4.342-3.154-3.074 4.36-.634L6.685-125l1.95 3.95 4.359.634-3.155 3.074.745 4.342z" class="cls-6" transform="translate(-.377 125)"/>
            </g>
            <g id="Path_1001" class="cls-4" data-name="Path 1001">
                <path d="M3.45-113.914l.574-3.343.045-.26-.189-.183-2.428-2.367 3.356-.488.26-.038.117-.236 1-2.028v7.505l-2.734 1.438z" class="cls-5" transform="translate(-.377 125)"/>
                <path d="M4.115-114.828l1.57-.826v-5.06l-.052.107-.233.471-.52.076-2.354.342 1.703 1.66.377.367-.089.518-.402 2.345M2.787-113l.744-4.342-3.154-3.074 4.36-.634L6.685-125v9.95l-3.9 2.05z" class="cls-7" transform="translate(-.377 125)"/>
            </g>
        </g>
    </g>
</svg>
